<svg width="40" height="40" viewBox="0 0 40 40" fill="none" xmlns="http://www.w3.org/2000/svg">
<rect x="0.5" y="0.5" width="39" height="39" stroke="#DADEDF"/>
<path d="M20.1364 26.1591C22.392 26.1591 24.0682 24.7443 24.0682 22.8409C24.0682 21.3636 23.1932 20.2898 21.7273 20.0455V19.9545C22.9034 19.5966 23.6364 18.6307 23.6364 17.3182C23.6364 15.6705 22.3352 14.2045 20.1818 14.2045C18.1705 14.2045 16.5 15.4432 16.4318 17.2727H17.7955C17.8466 16.1136 18.9489 15.4318 20.1591 15.4318C21.4432 15.4318 22.2727 16.2102 22.2727 17.3864C22.2727 18.6136 21.3125 19.4091 19.9318 19.4091H19V20.6591H19.9318C21.6989 20.6591 22.6818 21.5568 22.6818 22.8409C22.6818 24.0739 21.608 24.9091 20.1136 24.9091C18.767 24.9091 17.6989 24.2159 17.6136 23.0909H16.1818C16.267 24.9205 17.8807 26.1591 20.1364 26.1591Z" fill="#72787D"/>
</svg>
